HIERARCHY
ROOT Hips
{
  OFFSET 0 101.553 -1.50301
  CHANNELS 6 Xposition Yposition Zposition Zrotation Xrotation Yrotation
  JOINT Spine
  {
    OFFSET 0 0 4.66705
    CHANNELS 6 Xposition Yposition Zposition Zrotation Xrotation Yrotation
    JOINT Spine1
    {
      OFFSET 9.3341 0 0
      CHANNELS 6 Xposition Yposition Zposition Zrotation Xrotation Yrotation
      JOINT Spine2
      {
        OFFSET 11.0269 0 0
        CHANNELS 6 Xposition Yposition Zposition Zrotation Xrotation Yrotation
        JOINT Neck
        {
          OFFSET 27.2124 0 -10.2659
          CHANNELS 6 Xposition Yposition Zposition Zrotation Xrotation Yrotation
          JOINT Head
          {
            OFFSET 10.9224 0 0
            CHANNELS 6 Xposition Yposition Zposition Zrotation Xrotation Yrotation
            End Site
            {
              OFFSET 0 0 0
            }
          }
        }
        JOINT RightShoulder
        {
          OFFSET 23.8429 -1.55531 -7.12573
          CHANNELS 6 Xposition Yposition Zposition Zrotation Xrotation Yrotation
          JOINT RightArm
          {
            OFFSET 14.1892 0 0
            CHANNELS 6 Xposition Yposition Zposition Zrotation Xrotation Yrotation
            JOINT RightForeArm
            {
              OFFSET 29.5651 0 0
              CHANNELS 6 Xposition Yposition Zposition Zrotation Xrotation Yrotation
              JOINT RightHand
              {
                OFFSET 25.3936 0 0
                CHANNELS 6 Xposition Yposition Zposition Zrotation Xrotation Yrotation
                JOINT RightFingerBase
                {
                  OFFSET 2.18163 -1.45065e-005 0
                  CHANNELS 6 Xposition Yposition Zposition Zrotation Xrotation Yrotation
                  JOINT RightHandMiddle1
                  {
                    OFFSET 6.77462 0.08652 -1.22157
                    CHANNELS 6 Xposition Yposition Zposition Zrotation Xrotation Yrotation
                    End Site
                    {
                      OFFSET 0 0 0
                    }
                  }
                }
              }
            }
          }
        }
        JOINT LeftShoulder
        {
          OFFSET 23.8431 1.55531 -7.12577
          CHANNELS 6 Xposition Yposition Zposition Zrotation Xrotation Yrotation
          JOINT LeftArm
          {
            OFFSET -14.1892 0.000696551 0
            CHANNELS 6 Xposition Yposition Zposition Zrotation Xrotation Yrotation
            JOINT LeftForeArm
            {
              OFFSET -29.5651 0 0
              CHANNELS 6 Xposition Yposition Zposition Zrotation Xrotation Yrotation
              JOINT LeftHand
              {
                OFFSET -25.3936 0 0
                CHANNELS 6 Xposition Yposition Zposition Zrotation Xrotation Yrotation
                JOINT LeftFingerBase
                {
                  OFFSET -2.18182 -0.000550395 0
                  CHANNELS 6 Xposition Yposition Zposition Zrotation Xrotation Yrotation
                  JOINT LeftHandMiddle1
                  {
                    OFFSET -6.77444 -0.086014 1.22158
                    CHANNELS 6 Xposition Yposition Zposition Zrotation Xrotation Yrotation
                    End Site
                    {
                      OFFSET 0 0 0
                    }
                  }
                }
              }
            }
          }
        }
      }
    }
  }
  JOINT RightUpLeg
  {
    OFFSET -8.89671 -5.28428 -4.10676
    CHANNELS 6 Xposition Yposition Zposition Zrotation Xrotation Yrotation
    JOINT RightLeg
    {
      OFFSET 43.676 0 0
      CHANNELS 6 Xposition Yposition Zposition Zrotation Xrotation Yrotation
      JOINT RightFoot
      {
        OFFSET 45.3154 0 0
        CHANNELS 6 Xposition Yposition Zposition Zrotation Xrotation Yrotation
        JOINT RightToeBase
        {
          OFFSET 14.6877 0 0
          CHANNELS 6 Xposition Yposition Zposition Zrotation Xrotation Yrotation
          End Site
          {
            OFFSET 0 0 0
          }
        }
      }
    }
  }
  JOINT LeftUpLeg
  {
    OFFSET 8.89671 -5.28429 -4.10671
    CHANNELS 6 Xposition Yposition Zposition Zrotation Xrotation Yrotation
    JOINT LeftLeg
    {
      OFFSET -43.676 0 0
      CHANNELS 6 Xposition Yposition Zposition Zrotation Xrotation Yrotation
      JOINT LeftFoot
      {
        OFFSET -45.3154 0 0
        CHANNELS 6 Xposition Yposition Zposition Zrotation Xrotation Yrotation
        JOINT LeftToeBase
        {
          OFFSET -14.6877 0 0
          CHANNELS 6 Xposition Yposition Zposition Zrotation Xrotation Yrotation
          End Site
          {
            OFFSET 0 0 0
          }
        }
      }
    }
  }
}
MOTION
Frames:	4
Frame Time:	0.0333333
-9.58007 93.513 -21.5248 -76.3236 -86.5497 -76.6424 0 0 4.66705 -90.041 0.0219694 -90.0708 9.33409 -1.77636e-015 -3.55271e-015 -0.0303236 -0.0769389 -7.04483 11.0269 -3.55271e-015 -1.77636e-015 -0.0207225 -0.0793104 -3.09474 27.2125 -5.32907e-015 -10.2659 -1.89478 1.25703 29.1755 10.9224 -1.77636e-015 -1.42109e-014 2.51857 1.67714 -20.6562 23.8429 -1.55531 -7.12573 -96.6839 -9.36555 -5.21411 14.1892 -2.84217e-014 3.55271e-015 -12.2195 31.5341 22.3426 29.5651 0 1.42109e-014 1.72675 -32.8013 0.00113999 25.3936 -2.84217e-014 2.84217e-014 13.8134 1.51538 12.39 2.18163 4.26326e-014 -7.10543e-015 -1.48166e-007 -6.98421e-008 -9.83302e-007 6.77462 0.0865053 -1.22157 -21.6739 1.19639 -9.42508 23.8431 1.55531 -7.12577 97.9674 9.48084 175.269 -14.1892 0.000694916 -3.55271e-015 -2.86335 16.1433 1.62655 -29.5651 -2.84217e-014 -4.27958e-007 -2.17055 -10.3535 0.726392 -25.3936 2.7868e-008 -5.56579e-007 17.3972 2.91763 9.98356 -2.18182 -0.000553688 -9.22559e-006 1.72705e-007 -1.54327e-008 -8.96002e-008 -6.77445 -0.0859989 1.22158 -21.6739 1.19639 -9.42508 -8.89671 -5.28428 -4.10676 84.0637 1.64655 90.4002 43.6759 -1.06581e-014 -1.59872e-014 0.954128 1.51808 -3.72328 45.3154 -7.10543e-015 -2.13163e-014 90.6043 -19.0274 91.6604 14.6877 -8.88178e-016 -3.55271e-015 7.13107 1.85222e-006 -1.70109e-006 8.89671 -5.28429 -4.10672 97.3836 -3.08327 -89.1146 -43.676 7.99361e-015 -3.48883e-006 3.36621 1.70484 -3.15455 -45.3154 -5.32907e-015 3.71138e-006 88.7939 -20.7027 91.6103 -14.6877 -1.30235e-006 -3.88953e-006 7.13107 5.18976e-007 3.81619e-006 
-9.56994 93.5142 -21.5261 -76.2799 -86.5389 -76.594 0 0 4.66705 -90.041 0.0219694 -90.0708 9.33409 -3.55271e-015 3.55271e-015 -0.0303236 -0.0769389 -7.04483 11.0269 -3.55271e-015 -1.77636e-015 -0.0207225 -0.0793104 -3.09474 27.2125 -8.88178e-015 -10.2659 -1.8846 1.2612 29.1604 10.9224 -2.66454e-015 0 2.51473 1.67618 -20.6535 23.8429 -1.55531 -7.12573 -96.6865 -9.36549 -5.20218 14.1892 0 -3.55271e-015 -12.218 31.5349 22.3385 29.5651 2.84217e-014 2.84217e-014 1.72675 -32.7694 0.00113958 25.3936 -2.84217e-014 2.84217e-014 13.8276 1.52709 12.3542 2.18163 4.26326e-014 7.10543e-015 -1.48166e-007 -6.98421e-008 -9.83302e-007 6.77462 0.0865053 -1.22157 -21.6739 1.19639 -9.42508 23.8431 1.55531 -7.12577 97.9674 9.48084 175.272 -14.1892 0.000694916 -7.10543e-015 -2.85184 16.1243 1.61197 -29.5651 -2.84217e-014 -4.27958e-007 -2.17856 -10.3683 0.743233 -25.3936 2.7868e-008 -5.56579e-007 17.4173 2.91289 9.9879 -2.18182 -0.000553688 -9.22559e-006 1.72705e-007 -1.54327e-008 -8.96002e-008 -6.77445 -0.0859989 1.22158 -21.6739 1.19639 -9.42508 -8.89671 -5.28428 -4.10676 84.0637 1.64805 90.4031 43.6759 -1.06581e-014 -1.59872e-014 0.953066 1.50739 -3.70984 45.3154 -1.06581e-014 -2.13163e-014 90.6011 -19.0331 91.6591 14.6877 -1.77636e-015 -3.55271e-015 7.13107 1.85222e-006 -1.70109e-006 8.89671 -5.28429 -4.10672 97.3836 -3.08212 -89.1056 -43.676 7.10543e-015 -3.48883e-006 3.36062 1.70819 -3.16233 -45.3154 -7.10543e-015 3.71138e-006 88.8077 -20.7022 91.6104 -14.6877 -1.30235e-006 -3.88953e-006 7.13107 5.18976e-007 3.81619e-006 
-9.55213 93.5156 -21.5304 -76.2351 -86.5193 -76.5439 0 3.55271e-015 4.66705 -90.041 0.0219694 -90.0708 9.33409 -1.77636e-015 -3.55271e-015 -0.0303236 -0.0769389 -7.04483 11.0269 -1.77636e-015 0 -0.0207225 -0.0793104 -3.09474 27.2125 -8.88178e-015 -10.2659 -1.86467 1.26487 29.1359 10.9224 -2.66454e-015 0 2.49588 1.67184 -20.6471 23.8429 -1.55531 -7.12573 -96.6975 -9.36527 -5.1983 14.1892 0 0 -12.2087 31.5355 22.3297 29.5651 5.68434e-014 0 1.72665 -32.7452 0.00113942 25.3936 0 2.84217e-014 13.8389 1.53736 12.3227 2.18163 1.42109e-014 7.10543e-015 -1.48166e-007 -6.98421e-008 -9.83302e-007 6.77462 0.0865053 -1.22157 -21.6739 1.19639 -9.42508 23.8431 1.55531 -7.12577 97.9668 9.48085 175.284 -14.1892 0.000694916 -7.10543e-015 -2.83597 16.1021 1.58139 -29.5651 2.84217e-014 -4.27958e-007 -2.18346 -10.3647 0.770415 -25.3936 2.7868e-008 -5.56579e-007 17.4467 2.90596 9.99507 -2.18182 -0.000553688 -9.22559e-006 1.72705e-007 -1.54327e-008 -8.96002e-008 -6.77445 -0.0859989 1.22158 -21.6739 1.19639 -9.42508 -8.89671 -5.28428 -4.10676 84.0635 1.65259 90.4108 43.6759 -7.10543e-015 -1.59872e-014 0.95125 1.48437 -3.69782 45.3154 -3.55271e-015 -2.4869e-014 90.5911 -19.0409 91.6579 14.6877 -1.77636e-015 0 7.13107 1.85222e-006 -1.70109e-006 8.89671 -5.28429 -4.10672 97.3836 -3.08052 -89.0931 -43.676 7.99361e-015 -3.48883e-006 3.35151 1.71963 -3.17376 -45.3154 -5.32907e-015 3.71138e-006 88.8299 -20.7011 91.6106 -14.6877 -1.30235e-006 -3.88953e-006 7.13107 5.18976e-007 3.81619e-006 
-9.53328 93.5173 -21.5354 -76.1938 -86.4985 -76.4988 0 3.55271e-015 4.66705 -90.041 0.0219694 -90.0708 9.33409 0 0 -0.0299686 -0.0769819 -7.04483 11.0269 -3.55271e-015 3.55271e-015 -0.0203733 -0.0793285 -3.09474 27.2125 -5.32907e-015 -10.2659 -1.84366 1.26439 29.1214 10.9224 -3.55271e-015 0 2.46469 1.66518 -20.6409 23.8429 -1.55531 -7.12573 -96.7176 -9.36487 -5.20019 14.1892 2.84217e-014 -3.55271e-015 -12.1922 31.5405 22.3223 29.5651 2.84217e-014 2.13163e-014 1.72661 -32.7579 0.00113966 25.3936 -2.84217e-014 3.19744e-014 13.8293 1.53632 12.3255 2.18163 1.42109e-014 7.10543e-015 -1.48166e-007 -6.98421e-008 -9.83302e-007 6.77462 0.0865053 -1.22157 -21.6739 1.19639 -9.42508 23.8431 1.55531 -7.12577 97.9707 9.48077 175.294 -14.1892 0.000694916 -3.55271e-015 -2.83247 16.0952 1.54626 -29.5651 -2.84217e-014 -4.27958e-007 -2.1772 -10.354 0.794008 -25.3936 2.7868e-008 -5.56579e-007 17.4678 2.90103 10.0023 -2.18182 -0.000553688 -9.22559e-006 1.72705e-007 -1.54327e-008 -8.96002e-008 -6.77445 -0.0859989 1.22158 -21.6739 1.19639 -9.42508 -8.89671 -5.28428 -4.10676 84.0634 1.65795 90.4176 43.6759 -1.06581e-014 -1.77636e-014 0.949262 1.4596 -3.68315 45.3154 -7.10543e-015 -2.13163e-014 90.5772 -19.0553 91.6585 14.6877 -1.77636e-015 -3.55271e-015 7.13107 1.85222e-006 -1.70109e-006 8.89671 -5.28429 -4.10672 97.3836 -3.07969 -89.0866 -43.676 6.21725e-015 -3.48883e-006 3.34559 1.73889 -3.17441 -45.3154 -7.10543e-015 3.71138e-006 88.85 -20.7025 91.6107 -14.6877 -1.30235e-006 -3.88953e-006 7.13107 5.18976e-007 3.81619e-006 
